<svg width="963" height="1363" viewBox="0 0 963 1363" fill="none" xmlns="http://www.w3.org/2000/svg">
<g clip-path="url(#clip0)">
<path fill-rule="evenodd" clip-rule="evenodd" d="M696.365 522.611L922.133 619.323C941.221 627.5 962.451 613.498 962.451 592.732V464.077L962.451 314.099C962.451 302.549 955.581 292.106 944.975 287.535L283.544 2.42533C276.936 -0.422696 269.505 -0.706265 262.7 1.62992L31.6503 80.9501C6.72256 89.5079 5.29128 124.224 29.43 134.804L661.514 411.867C672.033 416.478 678.828 426.875 678.828 438.361V496.02C678.828 507.594 685.727 518.054 696.365 522.611ZM266.715 833.095L40.9484 735.712C21.8525 727.475 0.563643 741.477 0.563643 762.274V898.702L0.562997 1048.68C0.562947 1060.23 7.43332 1070.67 18.0398 1075.24L679.471 1360.35C686.078 1363.2 693.509 1363.49 700.314 1361.15L931.364 1281.83C956.292 1273.27 957.723 1238.56 933.584 1227.98L301.5 950.913C290.981 946.302 284.186 935.904 284.186 924.419L284.186 859.657C284.186 848.109 277.318 837.668 266.715 833.095ZM3.45379 226.527V601.365L679.074 893.467L679.074 1011.86L958.061 1131.96V755.142L282.441 462.474V346.846L3.45379 226.527Z" fill="#1B191C"/>
</g>
<defs>
<clipPath id="clip0">
<rect width="961.875" height="1362.66" fill="white" transform="translate(0.5625 0.0625)"/>
</clipPath>
</defs>
</svg>
