<svg width="24" height="24" viewBox="0 0 24 24" fill="none" xmlns="http://www.w3.org/2000/svg">
<path d="M7.38 1H16.62C20.14 1 23 3.86 23 7.38V16.62C23 18.3121 22.3278 19.9349 21.1313 21.1313C19.9349 22.3278 18.3121 23 16.62 23H7.38C3.86 23 1 20.14 1 16.62V7.38C1 5.68792 1.67218 4.06514 2.86866 2.86866C4.06514 1.67218 5.68792 1 7.38 1V1ZM7.16 3.2C6.10974 3.2 5.1025 3.61721 4.35986 4.35986C3.61721 5.1025 3.2 6.10974 3.2 7.16V16.84C3.2 19.029 4.971 20.8 7.16 20.8H16.84C17.8903 20.8 18.8975 20.3828 19.6401 19.6401C20.3828 18.8975 20.8 17.8903 20.8 16.84V7.16C20.8 4.971 19.029 3.2 16.84 3.2H7.16ZM17.775 4.85C18.1397 4.85 18.4894 4.99487 18.7473 5.25273C19.0051 5.51059 19.15 5.86033 19.15 6.225C19.15 6.58967 19.0051 6.93941 18.7473 7.19727C18.4894 7.45513 18.1397 7.6 17.775 7.6C17.4103 7.6 17.0606 7.45513 16.8027 7.19727C16.5449 6.93941 16.4 6.58967 16.4 6.225C16.4 5.86033 16.5449 5.51059 16.8027 5.25273C17.0606 4.99487 17.4103 4.85 17.775 4.85ZM12 6.5C13.4587 6.5 14.8576 7.07946 15.8891 8.11091C16.9205 9.14236 17.5 10.5413 17.5 12C17.5 13.4587 16.9205 14.8576 15.8891 15.8891C14.8576 16.9205 13.4587 17.5 12 17.5C10.5413 17.5 9.14236 16.9205 8.11091 15.8891C7.07946 14.8576 6.5 13.4587 6.5 12C6.5 10.5413 7.07946 9.14236 8.11091 8.11091C9.14236 7.07946 10.5413 6.5 12 6.5V6.5ZM12 8.7C11.1248 8.7 10.2854 9.04768 9.66655 9.66655C9.04768 10.2854 8.7 11.1248 8.7 12C8.7 12.8752 9.04768 13.7146 9.66655 14.3335C10.2854 14.9523 11.1248 15.3 12 15.3C12.8752 15.3 13.7146 14.9523 14.3335 14.3335C14.9523 13.7146 15.3 12.8752 15.3 12C15.3 11.1248 14.9523 10.2854 14.3335 9.66655C13.7146 9.04768 12.8752 8.7 12 8.7Z" fill="#747273"/>
</svg>
