<svg width="1000" height="1200" viewBox="0 0 1000 1200" fill="none" xmlns="http://www.w3.org/2000/svg">
<g clip-path="url(#clip0)">
<path fill-rule="evenodd" clip-rule="evenodd" d="M437.604 328.641L579.594 389.465C591.599 394.607 604.951 385.801 604.951 372.742V291.828L604.951 197.504C604.951 190.24 600.63 183.672 593.96 180.797L177.973 1.48602C173.817 -0.305147 169.144 -0.483491 164.864 0.985778L19.5522 50.8718C3.87464 56.254 2.97445 78.0872 18.1558 84.7417L415.686 258.992C422.301 261.892 426.575 268.431 426.575 275.654V311.918C426.575 319.196 430.913 325.775 437.604 328.641ZM167.388 523.91L25.3991 462.664C13.3894 457.484 0.000358613 466.29 0.000358613 479.37V565.172L-4.7895e-05 659.496C-7.92005e-05 666.76 4.32083 673.328 10.9914 676.203L426.978 855.514C431.134 857.305 435.807 857.484 440.087 856.014L585.399 806.128C601.076 800.746 601.977 778.913 586.795 772.258L189.265 598.008C182.65 595.108 178.376 588.569 178.376 581.346L178.376 540.615C178.376 533.353 174.057 526.787 167.388 523.91ZM1.81819 142.428V378.171L426.729 561.88L426.729 636.338L602.189 711.871V474.885L177.279 290.82V218.099L1.81819 142.428Z" fill="url(#paint0_linear)"/>
</g>
<defs>
<linearGradient id="paint0_linear" x1="0" y1="0" x2="808.704" y2="291.255" gradientUnits="userSpaceOnUse">
<stop stop-color="#242225" stop-opacity="0.43"/>
<stop offset="1" stop-color="#242225"/>
</linearGradient>
<clipPath id="clip0">
<rect width="1000" height="1200" fill="white"/>
</clipPath>
</defs>
</svg>
