<svg width="387" height="387" viewBox="0 0 387 387" fill="none" xmlns="http://www.w3.org/2000/svg">
<path fill-rule="evenodd" clip-rule="evenodd" d="M276.382 143.855C273.062 151.961 271.402 162.85 271.402 176.521H308.902L309.488 167.586C310.562 158.016 314.81 149.666 322.232 142.537L334.097 131.258C343.374 122.273 349.869 114.119 353.579 106.795C357.29 99.373 359.146 91.5117 359.146 83.2109C359.146 64.9492 353.433 50.8379 342.007 40.877C330.581 30.8184 314.517 25.7891 293.814 25.7891C273.306 25.7891 257.095 31.0625 245.181 41.6094C233.365 52.1562 227.359 66.7559 227.163 85.4082H269.644C269.839 77.5957 272.085 71.4922 276.382 67.0977C280.777 62.6055 286.587 60.3594 293.814 60.3594C309.048 60.3594 316.665 68.6113 316.665 85.1152C316.665 90.584 315.201 95.8086 312.271 100.789C309.341 105.672 303.433 112.068 294.546 119.979C285.757 127.791 279.703 135.75 276.382 143.855ZM273.746 205.379C269.351 209.578 267.154 214.949 267.154 221.492C267.154 227.938 269.302 233.26 273.599 237.459C277.994 241.658 283.755 243.758 290.884 243.758C298.013 243.758 303.726 241.658 308.023 237.459C312.417 233.26 314.615 227.938 314.615 221.492C314.615 214.949 312.369 209.578 307.876 205.379C303.482 201.082 297.818 198.934 290.884 198.934C283.951 198.934 278.238 201.082 273.746 205.379ZM134.694 147.261C134.694 140.425 135.524 134.98 137.184 130.928C138.844 126.875 141.871 122.896 146.266 118.989C150.709 115.034 153.663 111.836 155.128 109.395C156.593 106.904 157.326 104.292 157.326 101.558C157.326 93.3057 153.517 89.1797 145.9 89.1797C142.287 89.1797 139.381 90.3027 137.184 92.5488C135.036 94.7461 133.913 97.7979 133.815 101.704H112.575C112.672 92.3779 115.675 85.0781 121.583 79.8047C127.54 74.5312 135.646 71.8945 145.9 71.8945C156.251 71.8945 164.284 74.4092 169.996 79.4385C175.709 84.4189 178.566 91.4746 178.566 100.605C178.566 104.756 177.638 108.687 175.783 112.397C173.927 116.06 170.68 120.137 166.041 124.629L160.109 130.269C156.398 133.833 154.274 138.008 153.737 142.793L153.444 147.261H134.694ZM132.57 169.746C132.57 166.475 133.668 163.789 135.866 161.689C138.112 159.541 140.968 158.467 144.435 158.467C147.902 158.467 150.734 159.541 152.931 161.689C155.177 163.789 156.3 166.475 156.3 169.746C156.3 172.969 155.202 175.63 153.004 177.729C150.856 179.829 147.999 180.879 144.435 180.879C140.871 180.879 137.99 179.829 135.792 177.729C133.644 175.63 132.57 172.969 132.57 169.746ZM195.691 257.982C195.691 247.956 196.908 239.971 199.343 234.027C201.778 228.083 206.218 222.247 212.663 216.518C219.18 210.717 223.513 206.026 225.662 202.445C227.81 198.793 228.884 194.962 228.884 190.951C228.884 178.848 223.298 172.797 212.126 172.797C206.827 172.797 202.566 174.444 199.343 177.738C196.192 180.961 194.545 185.437 194.402 191.166H163.249C163.393 177.488 167.797 166.781 176.462 159.047C185.199 151.312 197.087 147.445 212.126 147.445C227.309 147.445 239.089 151.133 247.468 158.51C255.847 165.814 260.037 176.163 260.037 189.555C260.037 195.642 258.676 201.407 255.954 206.85C253.233 212.221 248.471 218.201 241.667 224.789L232.966 233.061C227.524 238.288 224.408 244.411 223.621 251.43L223.191 257.982H195.691ZM192.576 290.961C192.576 286.163 194.187 282.224 197.41 279.145C200.704 275.993 204.893 274.418 209.978 274.418C215.063 274.418 219.216 275.993 222.439 279.145C225.733 282.224 227.38 286.163 227.38 290.961C227.38 295.688 225.769 299.59 222.546 302.67C219.395 305.749 215.206 307.289 209.978 307.289C204.75 307.289 200.525 305.749 197.302 302.67C194.151 299.59 192.576 295.688 192.576 290.961Z" fill="url(#paint0_linear)"/>
<defs>
<linearGradient id="paint0_linear" x1="148" y1="232.5" x2="342.5" y2="140" gradientUnits="userSpaceOnUse">
<stop stop-color="#242225" stop-opacity="0"/>
<stop offset="0.335005" stop-color="#242225" stop-opacity="0.659115"/>
<stop offset="1" stop-color="#242225"/>
</linearGradient>
</defs>
</svg>
