<svg width="400" height="400" viewBox="0 0 400 400" fill="none" xmlns="http://www.w3.org/2000/svg">
<g clip-path="url(#clip0)">
<g filter="url(#filter0_d)">
<path fill-rule="evenodd" clip-rule="evenodd" d="M260.313 155.68L323.687 182.827C329.045 185.123 335.004 181.192 335.004 175.363V139.25L335.004 97.1507C335.004 93.9086 333.076 90.9772 330.098 89.6939L144.433 9.66322C142.579 8.86378 140.493 8.78417 138.583 9.43995L73.7266 31.7053C66.7293 34.1075 66.3275 43.8522 73.1033 46.8222L250.53 124.594C253.483 125.888 255.391 128.807 255.391 132.031V148.216C255.391 151.465 257.327 154.401 260.313 155.68ZM139.709 242.834L76.3362 215.498C70.976 213.186 65.0001 217.116 65.0001 222.954V261.25L64.9999 303.349C64.9999 306.591 66.9285 309.522 69.9057 310.806L255.571 390.836C257.425 391.636 259.511 391.715 261.421 391.06L326.277 368.794C333.275 366.392 333.677 356.647 326.901 353.677L149.474 275.905C146.521 274.611 144.613 271.692 144.613 268.468L144.613 250.29C144.613 247.048 142.686 244.117 139.709 242.834ZM65.8116 72.5691V177.787L255.459 259.78L255.459 293.013L333.772 326.725V220.952L144.124 138.8V106.343L65.8116 72.5691Z" fill="url(#paint0_linear)"/>
</g>
</g>
<defs>
<filter id="filter0_d" x="57" y="4.99997" width="286.004" height="398.5" filterUnits="userSpaceOnUse" color-interpolation-filters="sRGB">
<feFlood flood-opacity="0" result="BackgroundImageFix"/>
<feColorMatrix in="SourceAlpha" type="matrix" values="0 0 0 0 0 0 0 0 0 0 0 0 0 0 0 0 0 0 127 0"/>
<feOffset dy="4"/>
<feGaussianBlur stdDeviation="4"/>
<feColorMatrix type="matrix" values="0 0 0 0 0 0 0 0 0 0 0 0 0 0 0 0 0 0 0.25 0"/>
<feBlend mode="normal" in2="BackgroundImageFix" result="effect1_dropShadow"/>
<feBlend mode="normal" in="SourceGraphic" in2="effect1_dropShadow" result="shape"/>
</filter>
<linearGradient id="paint0_linear" x1="65" y1="8.99997" x2="425.944" y2="138.994" gradientUnits="userSpaceOnUse">
<stop stop-color="#C95BA3"/>
<stop offset="1" stop-color="#9253C1"/>
</linearGradient>
<clipPath id="clip0">
<rect width="270" height="382.5" fill="white" transform="translate(65 9)"/>
</clipPath>
</defs>
</svg>
