<svg width="24" height="24" viewBox="0 0 24 24" fill="none" xmlns="http://www.w3.org/2000/svg">
<path d="M24 4.30625C23.1189 4.7 22.1675 4.9625 21.174 5.07969C22.191 4.47031 22.969 3.50469 23.3392 2.35625C22.3878 2.91875 21.3333 3.33125 20.2132 3.55156C19.3134 2.59531 18.034 2 16.6186 2C13.9004 2 11.6977 4.20312 11.6977 6.92188C11.6977 7.30625 11.7399 7.68125 11.8243 8.04219C7.73286 7.83594 4.10545 5.87656 1.6778 2.89531C1.256 3.62187 1.0123 4.47031 1.0123 5.37031C1.0123 7.07656 1.87932 8.58594 3.20094 9.46719C2.39484 9.44375 1.63562 9.21875 0.970123 8.85312C0.970123 8.87187 0.970123 8.89531 0.970123 8.91406C0.970123 11.3 2.66667 13.2922 4.92091 13.7422C4.50849 13.8547 4.07264 13.9156 3.62273 13.9156C3.30404 13.9156 2.99941 13.8828 2.69479 13.8266C3.32279 15.7812 5.14118 17.2062 7.29233 17.2484C5.60516 18.5703 3.48682 19.3578 1.17633 19.3578C0.777973 19.3578 0.388987 19.3344 0 19.2875C2.18395 20.6891 4.77094 21.5 7.55009 21.5C16.6046 21.5 21.5583 13.9953 21.5583 7.48906C21.5583 7.27344 21.5536 7.0625 21.5442 6.85156C22.505 6.1625 23.3392 5.29531 24 4.30625V4.30625Z" fill="#747273"/>
</svg>
